# This file uses centimeters as units for non-parametric coordinates.

v -0.577350 -0.577350 0.577350
v 0.934172 0.356822 0.000000
v 0.934172 -0.356822 0.000000
v -0.934172 0.356822 0.000000
v -0.934172 -0.356822 0.000000
v 0.000000 0.934172 0.356822
v 0.000000 0.934172 -0.356822
v 0.356822 0.000000 -0.934172
v -0.356822 0.000000 -0.934172
v 0.000000 -0.934172 -0.356822
v 0.000000 -0.934172 0.356822
v 0.356822 0.000000 0.934172
v -0.356822 0.000000 0.934172
v 0.577350 0.577350 -0.577350
v 0.577350 0.577350 0.577350
v -0.577350 0.577350 -0.577350
v -0.577350 0.577350 0.577350
v 0.577350 -0.577350 -0.577350
v 0.577350 -0.577350 0.577350
v -0.577350 -0.577350 -0.577350
vn 0.688191 -0.425325 0.587785
vn 0.789118 -0.614242 -0.000000
vn 0.934172 0.356822 0.000000
vn 0.356822 -0.000000 0.934172
vn 0.688191 -0.425325 0.587785
vn 0.934172 0.356822 0.000000
vn 0.577350 0.577350 0.577350
vn 0.356822 -0.000000 0.934172
vn 0.934172 0.356822 0.000000
vn 0.304042 -0.093954 -0.948014
vn 0.577350 0.577350 -0.577350
vn 0.934172 0.356822 0.000000
vn 0.688191 -0.425325 -0.587785
vn 0.304042 -0.093954 -0.948014
vn 0.934172 0.356822 0.000000
vn 0.789118 -0.614242 -0.000000
vn 0.688191 -0.425325 -0.587785
vn 0.934172 0.356822 0.000000
vn -0.554074 -0.473235 -0.684873
vn -0.789118 -0.614242 0.000000
vn -0.934172 0.356822 -0.000000
vn -0.423275 0.130799 -0.896510
vn -0.554074 -0.473235 -0.684873
vn -0.934172 0.356822 -0.000000
vn -0.577350 0.577350 -0.577350
vn -0.423275 0.130799 -0.896510
vn -0.934172 0.356822 -0.000000
vn -0.356822 0.000000 0.934172
vn -0.577350 0.577350 0.577350
vn -0.934172 0.356822 -0.000000
vn -0.688191 -0.425325 0.587785
vn -0.356822 0.000000 0.934172
vn -0.934172 0.356822 -0.000000
vn -0.789118 -0.614242 0.000000
vn -0.688191 -0.425325 0.587785
vn -0.934172 0.356822 -0.000000
vn 0.000000 0.889947 -0.456063
vn -0.577350 0.577350 -0.577350
vn -0.934172 0.356822 -0.000000
vn 0.000000 0.889947 0.456063
vn 0.000000 0.889947 -0.456063
vn -0.934172 0.356822 -0.000000
vn -0.577350 0.577350 0.577350
vn 0.000000 0.889947 0.456063
vn -0.934172 0.356822 -0.000000
vn 0.000000 0.889947 0.456063
vn 0.577350 0.577350 0.577350
vn 0.934172 0.356822 0.000000
vn 0.000000 0.889947 -0.456063
vn 0.000000 0.889947 0.456063
vn 0.934172 0.356822 0.000000
vn 0.577350 0.577350 -0.577350
vn 0.000000 0.889947 -0.456063
vn 0.934172 0.356822 0.000000
vn -0.000000 -0.934172 -0.356822
vn 0.688191 -0.425325 -0.587785
vn 0.789118 -0.614242 -0.000000
vn 0.000000 -0.889947 0.456063
vn -0.000000 -0.934172 -0.356822
vn 0.789118 -0.614242 -0.000000
vn 0.688191 -0.425325 0.587785
vn 0.000000 -0.889947 0.456063
vn 0.789118 -0.614242 -0.000000
vn 0.000000 -0.889947 0.456063
vn -0.688191 -0.425325 0.587785
vn -0.789118 -0.614242 0.000000
vn -0.000000 -0.934172 -0.356822
vn 0.000000 -0.889947 0.456063
vn -0.789118 -0.614242 0.000000
vn -0.554074 -0.473235 -0.684873
vn -0.000000 -0.934172 -0.356822
vn -0.789118 -0.614242 0.000000
vn -0.554074 -0.473235 -0.684873
vn -0.423275 0.130799 -0.896510
vn 0.304042 -0.093954 -0.948014
vn -0.000000 -0.934172 -0.356822
vn -0.554074 -0.473235 -0.684873
vn 0.304042 -0.093954 -0.948014
vn 0.688191 -0.425325 -0.587785
vn -0.000000 -0.934172 -0.356822
vn 0.304042 -0.093954 -0.948014
vn -0.423275 0.130799 -0.896510
vn -0.577350 0.577350 -0.577350
vn 0.000000 0.889947 -0.456063
vn 0.304042 -0.093954 -0.948014
vn -0.423275 0.130799 -0.896510
vn 0.000000 0.889947 -0.456063
vn 0.577350 0.577350 -0.577350
vn 0.304042 -0.093954 -0.948014
vn 0.000000 0.889947 -0.456063
vn 0.356822 -0.000000 0.934172
vn 0.577350 0.577350 0.577350
vn 0.000000 0.889947 0.456063
vn -0.356822 0.000000 0.934172
vn 0.356822 -0.000000 0.934172
vn 0.000000 0.889947 0.456063
vn -0.577350 0.577350 0.577350
vn -0.356822 0.000000 0.934172
vn 0.000000 0.889947 0.456063
vn -0.356822 0.000000 0.934172
vn -0.688191 -0.425325 0.587785
vn 0.000000 -0.889947 0.456063
vn 0.356822 -0.000000 0.934172
vn -0.356822 0.000000 0.934172
vn 0.000000 -0.889947 0.456063
vn 0.688191 -0.425325 0.587785
vn 0.356822 -0.000000 0.934172
vn 0.000000 -0.889947 0.456063
f 19//1 3//2 2//3
f 12//4 19//5 2//6
f 15//7 12//8 2//9
f 8//10 14//11 2//12
f 18//13 8//14 2//15
f 3//16 18//17 2//18
f 20//19 5//20 4//21
f 9//22 20//23 4//24
f 16//25 9//26 4//27
f 13//28 17//29 4//30
f 1//31 13//32 4//33
f 5//34 1//35 4//36
f 7//37 16//38 4//39
f 6//40 7//41 4//42
f 17//43 6//44 4//45
f 6//46 15//47 2//48
f 7//49 6//50 2//51
f 14//52 7//53 2//54
f 10//55 18//56 3//57
f 11//58 10//59 3//60
f 19//61 11//62 3//63
f 11//64 1//65 5//66
f 10//67 11//68 5//69
f 20//70 10//71 5//72
f 20//73 9//74 8//75
f 10//76 20//77 8//78
f 18//79 10//80 8//81
f 9//82 16//83 7//84
f 8//85 9//86 7//87
f 14//88 8//89 7//90
f 12//91 15//92 6//93
f 13//94 12//95 6//96
f 17//97 13//98 6//99
f 13//100 1//101 11//102
f 12//103 13//104 11//105
f 19//106 12//107 11//108
